<svg width="181" height="72" viewBox="0 0 181 72" fill="none" xmlns="http://www.w3.org/2000/svg">
<path d="M20.772 47.5173C14.9826 47.5173 9.25469 43.3684 9.25469 35.9999C9.25469 29.2019 14.4112 24.4826 20.772 24.4826C23.1317 24.4826 25.3256 25.1922 27.152 26.4097C29.0224 27.6565 31.5412 28.1447 33.3666 26.833C35.6717 25.1765 36.2188 21.8973 34.0391 20.079C30.4446 17.0804 25.819 15.2763 20.772 15.2763C9.32671 15.2763 0.0483398 24.5546 0.0483398 35.9999C0.0483398 47.4453 9.32671 56.7236 20.772 56.7236C30.0701 56.7236 38.5764 48.6973 38.5764 41.0657C38.7303 39.8007 38.7661 37.6416 38.6726 35.7925C38.6075 34.504 37.5147 33.5657 36.2245 33.5657H19.2589C16.8971 33.5657 14.9826 35.4803 14.9826 37.8421C14.9826 40.2038 16.8971 42.1184 19.2589 42.1184H29.0298C29.0298 45.1447 25.1141 47.5173 20.772 47.5173Z" fill="white"/>
<path d="M63.1319 24.4827C55.3687 24.4827 51.6146 29.6392 51.6146 36.0001C51.6146 42.3609 56.771 47.5174 63.1319 47.5174C65.4916 47.5174 67.6855 46.8078 69.5119 45.5903C71.3823 44.3435 73.9011 43.8553 75.7265 45.167C78.0315 46.8235 78.5786 50.1027 76.3989 51.921C72.8045 54.9196 68.1789 56.7237 63.1319 56.7237C51.6866 56.7237 42.4082 47.4454 42.4082 36.0001C42.4082 24.5547 51.6866 15.2764 63.1319 15.2764C72.43 15.2764 80.9362 23.6316 80.9362 33.6974C81.0902 34.9625 81.1259 37.1215 81.0325 38.9706C80.9673 40.2591 79.8745 41.1974 78.5844 41.1974H61.6187C59.257 41.1974 57.3424 39.2828 57.3424 36.9211C57.3424 34.5594 59.257 32.6448 61.6187 32.6448H71.3897C71.3897 28.0395 68.0661 24.4827 63.1319 24.4827Z" fill="white"/>
<path d="M102.004 15.2764C92.4847 15.2764 84.7676 22.9935 84.7676 32.5132V51.6579C84.7676 54.4557 87.0356 56.7237 89.8334 56.7237C92.6311 56.7237 94.8992 54.4557 94.8992 51.6579V32.5132C94.8992 28.0804 97.5716 25.4079 102.004 25.4079C106.437 25.4079 109.11 28.0804 109.11 32.5132V51.6579C109.11 54.4557 111.378 56.7237 114.175 56.7237C116.973 56.7237 119.241 54.4557 119.241 51.6579V32.5132C119.241 22.9935 111.524 15.2764 102.004 15.2764Z" fill="white"/>
<path fill-rule="evenodd" clip-rule="evenodd" d="M142.054 39.656L169.237 66.8397C171.299 68.9018 174.643 68.9018 176.705 66.8397C178.767 64.7776 178.767 61.4343 176.705 59.3722L149.521 32.1885C147.459 30.1264 144.116 30.1264 142.054 32.1885C139.991 34.2506 139.991 37.5939 142.054 39.656ZM178.566 68.7005C181.655 65.6107 181.655 60.6012 178.566 57.5114L151.382 30.3277C148.292 27.2379 143.283 27.2379 140.193 30.3277C137.103 33.4175 137.103 38.427 140.193 41.5168L167.376 68.7005C170.466 71.7903 175.476 71.7903 178.566 68.7005Z" fill="white"/>
<path fill-rule="evenodd" clip-rule="evenodd" d="M149.589 39.7287L176.785 12.5326C178.853 10.4646 178.853 7.11167 176.785 5.04363C174.717 2.9756 171.364 2.9756 169.296 5.04363L142.1 32.2397C140.032 34.3077 140.032 37.6607 142.1 39.7287C144.168 41.7967 147.521 41.7967 149.589 39.7287ZM178.646 3.18283C175.55 0.0870992 170.531 0.0870967 167.435 3.18282L140.239 30.3789C137.143 33.4746 137.143 38.4938 140.239 41.5895C143.335 44.6852 148.354 44.6852 151.45 41.5895L178.646 14.3934C181.742 11.2977 181.742 6.27856 178.646 3.18283Z" fill="white"/>
<path d="M135.374 35.9829L125.197 46.1599C122.295 49.0613 122.295 53.7654 125.197 56.6669C128.098 59.5683 132.802 59.5683 135.704 56.6669L143.701 48.669L139.086 44.0534C138.874 43.8722 138.667 43.6812 138.466 43.4805C136.396 41.4108 135.366 38.6956 135.374 35.9829Z" fill="white"/>
<path d="M143.561 23.4548L138.522 28.4939C138.508 28.5082 138.493 28.5225 138.479 28.5369C138.452 28.5634 138.426 28.5899 138.4 28.6166C136.362 30.6905 135.353 33.397 135.374 36.0971L125.155 25.878C122.267 22.9905 122.267 18.3088 125.155 15.4213C128.053 12.523 132.756 12.5353 135.639 15.4488L143.561 23.4548Z" fill="white"/>
</svg>
