<svg width="108" height="75" viewBox="0 0 108 75" fill="none" xmlns="http://www.w3.org/2000/svg">
<path d="M20.081 42.6282C17.2647 42.6282 14.4784 40.61 14.4784 37.0257C14.4784 33.7188 16.9867 31.4231 20.081 31.4231C21.2288 31.4231 22.296 31.7683 23.1845 32.3605C24.0943 32.967 25.3196 33.2045 26.2076 32.5664C27.3289 31.7606 27.595 30.1655 26.5347 29.281C24.7862 27.8223 22.5361 26.9447 20.081 26.9447C14.5134 26.9447 10 31.4581 10 37.0257C10 42.5932 14.5134 47.1066 20.081 47.1066C24.604 47.1066 28.7418 43.2023 28.7418 39.4899C28.8167 38.8745 28.8341 37.8242 28.7886 36.9248C28.757 36.298 28.2254 35.8415 27.5978 35.8415H19.3449C18.196 35.8415 17.2647 36.7729 17.2647 37.9217C17.2647 39.0706 18.196 40.0019 19.3449 40.0019H24.098C24.098 41.4741 22.1932 42.6282 20.081 42.6282Z" fill="#F51414"/>
<path d="M40.6867 31.4231C36.9103 31.4231 35.0841 33.9314 35.0841 37.0257C35.0841 40.1199 37.5925 42.6282 40.6867 42.6282C41.8345 42.6282 42.9018 42.2831 43.7902 41.6908C44.7001 41.0843 45.9253 40.8468 46.8133 41.4849C47.9346 42.2907 48.2007 43.8858 47.1404 44.7704C45.3919 46.229 43.1418 47.1066 40.6867 47.1066C35.1191 47.1066 30.6057 42.5932 30.6057 37.0257C30.6057 31.4581 35.1191 26.9447 40.6867 26.9447C45.2097 26.9447 49.3475 31.0091 49.3475 35.9056C49.4224 36.5209 49.4398 37.5712 49.3944 38.4707C49.3627 39.0975 48.8311 39.5539 48.2035 39.5539H39.9506C38.8017 39.5539 37.8704 38.6226 37.8704 37.4737C37.8704 36.3249 38.8017 35.3935 39.9506 35.3935H44.7037C44.7037 33.1533 43.0869 31.4231 40.6867 31.4231Z" fill="#F51414"/>
<path d="M59.5964 26.9447C54.9655 26.9447 51.2115 30.6987 51.2115 35.3295V44.6424C51.2115 46.0034 52.3148 47.1066 53.6758 47.1066C55.0367 47.1066 56.14 46.0034 56.14 44.6424V35.3295C56.14 33.1732 57.44 31.8732 59.5964 31.8732C61.7527 31.8732 63.0527 33.1732 63.0527 35.3295V44.6424C63.0527 46.0034 64.156 47.1066 65.5169 47.1066C66.8779 47.1066 67.9812 46.0034 67.9812 44.6424V35.3295C67.9812 30.6987 64.2272 26.9447 59.5964 26.9447Z" fill="#F51414"/>
<path opacity="0.8" d="M96.838 47.4894C98.341 48.9924 98.341 51.4293 96.838 52.9323C95.335 54.4354 92.8981 54.4354 91.3951 52.9323L78.1717 39.7089C76.6686 38.2059 76.6686 35.769 78.1717 34.266C79.6747 32.763 82.1115 32.763 83.6146 34.266L96.838 47.4894Z" fill="#F87A1F"/>
<path opacity="0.8" d="M91.4258 21.0626C92.9317 19.5567 95.3732 19.5567 96.8792 21.0626C98.3851 22.5685 98.3851 25.01 96.8792 26.5159L83.6497 39.7454C82.1438 41.2513 79.7022 41.2513 78.1963 39.7454C76.6904 38.2395 76.6904 35.7979 78.1963 34.292L91.4258 21.0626Z" fill="#FFAD32"/>
<path opacity="0.8" d="M75.8282 37.0177L70.8776 41.9682C69.4662 43.3796 69.4662 45.6679 70.8776 47.0793C72.289 48.4907 74.5773 48.4907 75.9887 47.0793L79.8793 43.1888L77.6341 40.9436C77.5308 40.8554 77.4302 40.7625 77.3325 40.6649C76.3257 39.6581 75.8243 38.3373 75.8282 37.0177Z" fill="#BA0C0C"/>
<path opacity="0.8" d="M79.8112 30.9227L77.3599 33.374C77.3529 33.3809 77.3458 33.3879 77.3388 33.3949C77.326 33.4078 77.3132 33.4207 77.3005 33.4337C76.3091 34.4425 75.8184 35.7591 75.8285 37.0725L70.8574 32.1015C69.4528 30.6969 69.4528 28.4195 70.8574 27.0148C72.2673 25.605 74.555 25.611 75.9574 27.0282L79.8112 30.9227Z" fill="#FF1717"/>
</svg>
