<svg width="24" height="24" viewBox="0 0 24 24" fill="none" xmlns="http://www.w3.org/2000/svg">
<path d="M6.06445 11.4287H8.0625V13.1221H6.06445V15.4131H4.21875V13.1221H2.21484V11.4287H4.21875V9.20215H6.06445V11.4287Z" fill="white"/>
<path d="M13.6523 7.61426V9.16699H13.5645C12.8262 9.16699 12.2188 9.34473 11.7422 9.7002C11.2695 10.0518 10.9785 10.542 10.8691 11.1709C11.3145 10.7334 11.877 10.5146 12.5566 10.5146C13.2949 10.5146 13.8828 10.7842 14.3203 11.3232C14.7578 11.8623 14.9766 12.5693 14.9766 13.4443C14.9766 13.9873 14.8477 14.4854 14.5898 14.9385C14.3359 15.3916 13.9785 15.7471 13.5176 16.0049C13.0605 16.2588 12.5527 16.3857 11.9941 16.3857C11.3887 16.3857 10.8477 16.249 10.3711 15.9756C9.89453 15.6982 9.52344 15.3037 9.25781 14.792C8.99219 14.2803 8.85547 13.6904 8.84766 13.0225V12.2314C8.84766 11.3525 9.03516 10.5635 9.41016 9.86426C9.78906 9.16113 10.3281 8.61035 11.0273 8.21191C11.7266 7.81348 12.502 7.61426 13.3535 7.61426H13.6523ZM11.8711 12.0264C11.6094 12.0264 11.3906 12.0869 11.2148 12.208C11.0391 12.3291 10.9082 12.4775 10.8223 12.6533V13.2451C10.8223 14.3232 11.1953 14.8623 11.9414 14.8623C12.2422 14.8623 12.4922 14.7275 12.6914 14.458C12.8945 14.1885 12.9961 13.8506 12.9961 13.4443C12.9961 13.0264 12.8926 12.6865 12.6855 12.4248C12.4824 12.1592 12.2109 12.0264 11.8711 12.0264Z" fill="white"/>
<path d="M21.7852 16.2686H15.832V14.9795L18.5742 12.0967C19.25 11.3271 19.5879 10.7158 19.5879 10.2627C19.5879 9.89551 19.5078 9.61621 19.3477 9.4248C19.1875 9.2334 18.9551 9.1377 18.6504 9.1377C18.3496 9.1377 18.1055 9.2666 17.918 9.52441C17.7305 9.77832 17.6367 10.0967 17.6367 10.4795H15.6562C15.6562 9.95605 15.7871 9.47363 16.0488 9.03223C16.3105 8.58691 16.6738 8.23926 17.1387 7.98926C17.6035 7.73926 18.123 7.61426 18.6973 7.61426C19.6191 7.61426 20.3281 7.82715 20.8242 8.25293C21.3242 8.67871 21.5742 9.29004 21.5742 10.0869C21.5742 10.4229 21.5117 10.751 21.3867 11.0713C21.2617 11.3877 21.0664 11.7217 20.8008 12.0732C20.5391 12.4209 20.1152 12.8877 19.5293 13.4736L18.4277 14.7451H21.7852V16.2686Z" fill="white"/>
</svg>
