<svg width="24" height="24" viewBox="0 0 24 24" fill="none" xmlns="http://www.w3.org/2000/svg">
<path fill-rule="evenodd" clip-rule="evenodd" d="M12.4225 9.15873C12.4098 16.9505 12.4271 16.3559 12.1969 16.9158C11.5585 18.4682 9.59365 19.1805 8.07747 18.4091C7.26325 17.9948 6.72091 17.3348 6.50268 16.4928C6.38478 16.0377 6.40964 15.3627 6.56097 14.9111C6.88209 13.9528 7.70799 13.2087 8.72951 12.9573C9.08697 12.8694 9.71519 12.8674 10.0831 12.953C10.2332 12.9879 10.3637 13.0164 10.3734 13.0164C10.383 13.0164 10.3909 12.263 10.3909 11.3422V9.66795L10.1448 9.64283C9.71203 9.59869 8.87275 9.61588 8.44671 9.6776C7.03922 9.88156 5.81854 10.4876 4.80795 11.4841C3.92824 12.3516 3.34538 13.4224 3.09625 14.6287C2.96718 15.2538 2.96806 16.4034 3.09805 16.9922C3.39515 18.338 3.96812 19.3434 4.97538 20.2863C6.14674 21.3829 7.73686 22.0002 9.39007 22C11.0973 21.9998 12.6686 21.391 13.8659 20.2659C14.8255 19.3642 15.4185 18.3267 15.721 17.0206C15.8112 16.6311 15.8115 16.6187 15.8251 12.6225L15.8387 8.61494L16.2759 8.89668C17.5606 9.72479 18.9611 10.1744 20.5435 10.2667L21 10.2933V8.6526V7.0119L20.6651 6.98678C18.2754 6.80754 16.3628 5.15918 15.9121 2.89034C15.87 2.67845 15.8356 2.39144 15.8356 2.25256V2H14.1349H12.4341L12.4225 9.15873Z" fill="white"/>
</svg>
