<svg width="750" height="750" viewBox="0 0 750 750" fill="none" xmlns="http://www.w3.org/2000/svg">
<path fill-rule="evenodd" clip-rule="evenodd" d="M341.185 0.000815118C339.009 0.0370018 336.213 1.00993 336.185 4.73811C336.159 8.46628 340.019 16.4064 339.805 34.6278C339.583 53.5599 335.245 66.4355 308.812 98.8249L204.033 227.214C143.402 301.507 102.19 335.385 102.001 416.428C101.811 497.47 143.434 537.072 204.077 585.886C264.72 634.699 343.279 698.072 404.393 747.712C405.781 748.838 407.509 750.035 409.685 749.999C411.861 749.963 414.658 748.99 414.685 745.262C414.711 741.534 410.541 737.872 410.754 719.651C410.976 700.719 412.816 689.333 439.412 657.078L549.43 523.651C610.435 449.665 648.192 416.58 648.381 336.507C648.571 256.433 606.596 212.709 552.861 171.03C482.176 116.203 400.015 47.0742 346.476 2.28827C345.106 1.14164 343.361 -0.0354041 341.185 0.000815118Z" fill="url(#paint0_radial_229_341)"/>
<path fill-rule="evenodd" clip-rule="evenodd" d="M250.446 274.507V307.497H343.644V522.677C343.644 552.887 365.171 566.668 386.256 566.668C407.342 566.668 420.717 559.645 420.717 559.645C420.717 559.645 407.858 549.235 407.802 502.966C407.748 458.092 407.797 316.592 407.802 296.634C407.807 276.675 384.541 240.739 346.258 240.74L287.091 240.74C267.699 240.74 250.446 256.534 250.446 274.507V274.507ZM387.319 240.74C386.097 240.74 385.114 241.723 385.114 242.945C385.114 244.167 386.34 245.074 387.319 245.805C391.378 248.834 404.029 257.803 410.07 270.073C416.111 282.344 416.255 293.479 420.18 299.912C424.105 306.344 430.511 307.497 437.286 307.497H485.995C496.758 307.497 500.987 300.263 500.987 291.683V240.74H387.319Z" fill="white"/>
<defs>
<radialGradient id="paint0_radial_229_341" cx="0" cy="0" r="1" gradientUnits="userSpaceOnUse" gradientTransform="translate(182.247 569.902) rotate(-28.191) scale(493.451 420.251)">
<stop stop-color="#FFCC00"/>
<stop offset="0.604356" stop-color="#FF0015"/>
<stop offset="1" stop-color="#C6000F"/>
</radialGradient>
</defs>
</svg>
